<?xml version="1.0" encoding="UTF-8" standalone="no"?>
<!-- Created with Inkscape (http://www.inkscape.org/) -->

<svg
   xmlns:dc="http://purl.org/dc/elements/1.1/"
   xmlns:cc="http://creativecommons.org/ns#"
   xmlns:rdf="http://www.w3.org/1999/02/22-rdf-syntax-ns#"
   xmlns:svg="http://www.w3.org/2000/svg"
   xmlns="http://www.w3.org/2000/svg"
   xmlns:sodipodi="http://sodipodi.sourceforge.net/DTD/sodipodi-0.dtd"
   xmlns:inkscape="http://www.inkscape.org/namespaces/inkscape"
   version="1.1"
   id="svg3713"
   width="1334"
   height="494"
   viewBox="0 0 1334 494"
   sodipodi:docname="logo.svg"
   inkscape:version="0.92.5 (2060ec1f9f, 2020-04-08)">
  <metadata
     id="metadata3719">
    <rdf:RDF>
      <cc:Work
         rdf:about="">
        <dc:format>image/svg+xml</dc:format>
        <dc:type
           rdf:resource="http://purl.org/dc/dcmitype/StillImage" />
        <dc:title></dc:title>
      </cc:Work>
    </rdf:RDF>
  </metadata>
  <defs
     id="defs3717" />
  <sodipodi:namedview
     pagecolor="#ffffff"
     bordercolor="#666666"
     borderopacity="1"
     objecttolerance="10"
     gridtolerance="10"
     guidetolerance="10"
     inkscape:pageopacity="0"
     inkscape:pageshadow="2"
     inkscape:window-width="1827"
     inkscape:window-height="1046"
     id="namedview3715"
     showgrid="false"
     inkscape:zoom="0.90404798"
     inkscape:cx="711.24544"
     inkscape:cy="247"
     inkscape:window-x="4882"
     inkscape:window-y="-11"
     inkscape:window-maximized="1"
     inkscape:current-layer="svg3713" />
  <path
     style="fill:#000000"
     d="M 149,413.5 V 408 h 14.5 14.5 v 5.5 5.5 H 163.5 149 Z m 37,0 V 408 h 5.5 5.5 v -13 -13 h 6 6 v 13 13 h 6 6 v 5.5 5.5 H 203.5 186 Z m 42,-12.88658 v -18.38658 l 10.61217,-0.39283 c 9.6616,-0.35765 10.78127,-0.60167 12.5,-2.72421 2.37577,-2.93395 2.37164,-4.2902 -0.0221,-7.24902 -1.75162,-2.16513 -2.78757,-2.38904 -12.5,-2.7018 L 228,368.81795 V 363.40898 358 h 11.78811 c 14.64681,0 19.37282,1.84453 22.96189,8.96189 6.55395,12.99689 -2.16041,25.95198 -17.5,26.01615 L 240,393 v 13 13 h -6 -6 z m 52.78042,16.3341 C 277.30082,415.11015 272,408.80928 272,406.51058 c 0,-0.56383 1.9989,-2.23252 4.442,-3.70821 l 4.44201,-2.68307 3.94035,3.94035 c 4.26624,4.26624 6.50119,4.80148 9.95313,2.38365 4.00661,-2.80634 2.76522,-5.20243 -8.20438,-15.83591 -12.3628,-11.98399 -14.04489,-15.46508 -11.14366,-23.06184 2.08735,-5.46563 6.21436,-8.63836 12.09941,-9.30169 7.04484,-0.79406 11.24228,0.504 16.09547,4.97751 l 4.44478,4.09706 -2.78455,2.92684 c -4.63403,4.87081 -6.0641,5.24792 -8.95151,2.3605 -3.21656,-3.21655 -5.71434,-4.00726 -8.29528,-2.62599 -3.78024,2.02313 -2.29791,4.62397 7.3809,12.95025 11.19682,9.63217 14.19422,14.5818 13.20427,21.8043 -0.75953,5.54137 -4.6398,10.95694 -9.22264,12.87178 -4.86674,2.03345 -14.14307,1.70535 -18.61988,-0.65859 z m 56.21311,1.17299 c -5.04498,-1.64502 -8.68991,-4.06746 -12.75378,-8.47623 -6.16053,-6.6834 -7.57607,-10.60762 -7.62711,-21.14428 -0.038,-7.84001 0.29812,-9.65604 2.60766,-14.09002 5.36803,-10.30582 14.09292,-15.55602 26.93277,-16.20678 7.69694,-0.39011 9.26989,-0.15618 14.23546,2.11714 6.33071,2.89829 12.61147,7.38355 12.61147,9.00619 0,0.59903 -1.62566,2.75397 -3.61258,4.78877 l -3.61259,3.69962 -4.41094,-3.36695 c -6.61959,-5.05285 -12.49159,-6.3734 -19.58284,-4.40396 -10.94036,3.03843 -16.71615,15.89769 -11.90139,26.49736 5.20801,11.46539 18.80785,14.57137 30.20868,6.89918 2.81195,-1.8923 5.40492,-3.43244 5.76215,-3.42252 0.35723,0.01 2.15876,1.83532 4.00339,4.05647 3.97502,4.78638 3.68532,5.36574 -5.44867,10.89673 -5.35944,3.24535 -6.35624,3.48734 -15.31883,3.7189 -5.27251,0.13622 -10.71429,-0.12011 -12.09285,-0.56962 z M 381,400 v -19 h 16 16 V 369.5 358 h 6.5 6.5 V 388.5 419 H 419.5 413 V 405.5 392 h -9.5 -9.5 v 13.5 13.5 h -6.5 -6.5 z m 52,13.5 V 408 h 5.5 5.5 v -13 -13 h 6 6 v 13 13 h 6 6 v 5.5 5.5 H 450.5 433 Z m 52,-13 V 382 h 6.5 6.5 v 18.5 18.5 h -6.5 -6.5 z m 31,18.1618 c 0,-0.83899 15.24282,-35.25021 15.93036,-35.96337 0.42503,-0.44086 3.52261,-0.66586 6.88352,-0.5 l 6.11075,0.30157 -5.46131,12.5 c -3.00372,6.875 -5.46176,12.6125 -5.46232,12.75 -5.5e-4,0.1375 4.499,0.25 9.999,0.25 h 10 v 5.5 5.5 h -19 c -10.45,0 -19,-0.15219 -19,-0.3382 z M 606,399 v -20 h 5.51353 5.51354 l 8.23646,-10.4935 8.23647,-10.49349 7.25,-0.007 c 3.9875,-0.004 7.25,0.24457 7.25,0.55144 0,0.30687 -4.5,6.33393 -10,13.39347 -5.5,7.05955 -10,13.14397 -10,13.52096 0,0.37698 5.15286,8.07492 11.45079,17.10653 l 11.4508,16.4211 -7.7008,-0.0347 -7.70079,-0.0347 -8.5,-12.44397 -8.5,-12.44398 -0.27988,12.47866 -0.27987,12.47866 H 611.97012 606 v -20 z m 52,1 v -19 h 17 17 v 5.5 5.5 h -11 -11 v 8 8 h 11 11 v 5.5 5.5 h -17 -17 z m 41,0.5 V 382 l 9.75,-0.0147 c 11.45432,-0.0173 14.61608,-1.17493 15.04405,-5.50806 0.583,-5.90269 -1.35817,-6.93838 -13.71164,-7.31568 L 699,368.82305 v -5.48901 -5.489 l 13.43071,0.32748 c 11.6982,0.28524 13.78641,0.59344 16.18821,2.38927 5.22136,3.90402 6.79605,7.0343 7.15344,14.22018 0.39069,7.85534 -1.55957,11.9799 -7.25294,15.33907 l -3.46246,2.0429 7.05883,13.41803 L 739.17462,419 h -6.94506 -6.94506 L 718.89225,406.75 712.5,394.5 712.21922,406.75 711.93844,419 H 705.46922 699 Z m 48.09267,15.79552 c 0.59278,-1.53754 5.27102,-14.49552 10.3961,-28.79552 5.12508,-14.3 9.63487,-26.7875 10.02176,-27.75 0.56333,-1.40141 1.92709,-1.74882 6.84646,-1.74407 l 6.14301,0.006 6.75,19.33811 c 3.7125,10.63596 6.75,19.63329 6.75,19.99406 0,0.36078 -2.81857,0.65596 -6.2635,0.65596 h -6.2635 l -3.455,-9.94817 c -1.90025,-5.47149 -3.69045,-9.71271 -3.97822,-9.42494 -0.28778,0.28777 -3.68128,9.37695 -7.54112,20.19817 l -7.01789,19.67494 -6.73294,0.29552 -6.73294,0.29552 1.07778,-2.79552 z m 41.39262,1.45448 c -0.24857,-0.6875 -1.11449,-3.1625 -1.92426,-5.5 L 785.08872,408 h 6.45564 c 3.5506,0 6.45587,0.1125 6.45614,0.25 2.8e-4,0.1375 0.89845,2.6125 1.99593,5.5 l 1.99542,5.25 h -6.52731 c -4.31414,0 -6.68055,-0.42383 -6.97925,-1.25 z m 30.29513,-0.80248 C 815.30082,415.11015 810,408.80928 810,406.51058 c 0,-0.56383 1.9989,-2.23252 4.442,-3.70821 l 4.44201,-2.68307 3.94035,3.94035 c 4.26624,4.26624 6.50119,4.80148 9.95313,2.38365 4.00661,-2.80634 2.76522,-5.20243 -8.20438,-15.83591 -12.3628,-11.98399 -14.04489,-15.46508 -11.14366,-23.06184 2.08735,-5.46563 6.21436,-8.63836 12.09941,-9.30169 7.04484,-0.79406 11.24228,0.504 16.09547,4.97751 l 4.44478,4.09706 -2.78455,2.92684 c -4.63403,4.87081 -6.0641,5.24792 -8.95151,2.3605 -3.21656,-3.21655 -5.71434,-4.00726 -8.29528,-2.62599 -3.78024,2.02313 -2.29791,4.62397 7.3809,12.95025 11.19682,9.63217 14.19422,14.5818 13.20427,21.8043 -0.75953,5.54137 -4.6398,10.95694 -9.22264,12.87178 -4.86674,2.03345 -14.14307,1.70535 -18.61988,-0.65859 z M 897,413.5 V 408 h 15 15 v 5.5 5.5 h -15 -15 z m 38.22998,4.25 c 0.24418,-0.6875 5.12815,-14.4125 10.85327,-30.5 L 956.49256,358 h 6.14673 c 4.92168,0 6.28573,0.34878 6.84414,1.75 0.38358,0.9625 3.56986,9.98279 7.08063,20.04509 l 6.38322,18.29509 -6.63635,-0.29509 -6.63635,-0.29509 -2.83956,-8.5 c -1.56176,-4.675 -3.10446,-9.175 -3.42822,-10 -0.67902,-1.73024 -1.52408,0.30466 -9.86299,23.75 l -5.7797,16.25 h -6.48905 c -4.76134,0 -6.37083,-0.33281 -6.04508,-1.25 z m 40.50474,-3.63421 C 974.78062,411.42947 974,408.95447 974,408.61579 974,408.2771 976.81938,408 980.26528,408 h 6.26528 l 1.73472,4.88421 c 0.9541,2.68632 1.73472,5.16132 1.73472,5.5 C 990,418.7229 987.18062,419 983.73472,419 h -6.26528 z M 1016,406.48948 V 393.97895 L 1006.9947,375.98948 997.98946,358 l 6.75524,0.0127 6.7553,0.0127 5.5,10.7373 5.5,10.7373 6.2387,0.29742 6.2387,0.29743 -3.4887,6.92761 C 1028.0582,393.8345 1028,394.15902 1028,406.47504 V 419 h -6 -6 z M 1054,400 v -19 h 17 17 v 5.5 5.5 h -11 -11 v 8 8 h 11 11 v 5.5 5.5 h -17 -17 z m 41,0.5 V 382 l 9.75,-0.0147 c 12.3526,-0.0187 14.75,-1.07277 14.75,-6.48526 0,-5.41249 -2.3974,-6.46658 -14.75,-6.48526 L 1095,369 v -5.5 -5.5 h 12.1843 c 14.687,0 19.0756,1.55917 22.74,8.07909 1.9235,3.42238 2.23,5.18504 1.9041,10.95121 -0.4173,7.38595 -2.3056,10.58681 -7.9905,13.54492 l -2.662,1.38518 6.912,12.99421 c 3.8017,7.14681 6.9121,13.23072 6.9121,13.51979 0,0.28908 -3.0375,0.51914 -6.75,0.51124 l -6.75,-0.0144 -6.7213,-12.73564 -6.7213,-12.73564 -0.029,12.75 -0.029,12.75 h -6.5 -6.5 v -18.5 z m 56.7804,16.44752 c -3.4796,-1.83737 -8.7804,-8.13824 -8.7804,-10.43694 0,-0.56383 1.9989,-2.23252 4.442,-3.70821 l 4.442,-2.68307 3.9404,3.94035 c 4.2662,4.26624 6.5011,4.80148 9.9531,2.38365 4.0066,-2.80634 2.7652,-5.20243 -8.2044,-15.83591 -12.3628,-11.98399 -14.0449,-15.46508 -11.1436,-23.06184 2.0873,-5.46563 6.2143,-8.63836 12.0994,-9.30169 7.0448,-0.79406 11.2422,0.504 16.0954,4.97751 l 4.4448,4.09706 -2.7845,2.92684 c -4.6341,4.87081 -6.0641,5.24792 -8.9516,2.3605 -3.2165,-3.21655 -5.7143,-4.00726 -8.2952,-2.62599 -3.7803,2.02313 -2.2979,4.62397 7.3809,12.95025 11.1968,9.63217 14.1942,14.5818 13.2042,21.8043 -0.7595,5.54137 -4.6398,10.95694 -9.2226,12.87178 -4.8667,2.03345 -14.1431,1.70535 -18.6199,-0.65859 z M 149,376.5 V 358 h 6 6 v 18.5 18.5 h -6 -6 z m 748,0 V 358 h 6.5 6.5 v 18.5 18.5 h -6.5 -6.5 z m -711,-13 V 358 h 17.5 17.5 v 5.5 5.5 H 203.5 186 Z m 247,0 V 358 h 17.5 17.5 v 5.5 5.5 H 450.5 433 Z m 41,0 V 358 h 17.5 17.5 v 5.5 5.5 H 491.5 474 Z m 44,0 V 358 h 18.5 c 10.175,0 18.5,0.25408 18.5,0.56462 0,0.31054 -0.95541,2.78554 -2.12314,5.5 L 550.75371,369 H 534.37686 518 Z m 140,0 V 358 h 17 17 v 5.5 5.5 h -17 -17 z m 371.7687,0.25 2.9617,-5.25 6.7341,-0.29795 c 3.7038,-0.16388 6.5665,0.0611 6.3617,0.5 -0.2048,0.43887 -1.4642,2.93545 -2.7986,5.54795 l -2.4261,4.75 h -6.8973 -6.8972 z M 1054,363.5 V 358 h 17 17 v 5.5 5.5 h -17 -17 z M 381,363 v -5 h 6.5 6.5 v 5 5 h -6.5 -6.5 z m 225,-1 v -4 h 6 6 v 4 4 h -6 -6 z M 296.67375,305.34041 C 296.30319,304.96985 296,270.08848 296,227.82625 v -76.84043 l 66.75,0.25709 66.75,0.25709 0.26913,22.25 0.26913,22.25 H 386.51913 343 v 31.48938 31.48937 l 43.25,0.26063 43.25,0.26062 v 23 23 l -66.07625,0.25708 c -36.34194,0.1414 -66.37944,-0.0461 -66.75,-0.41667 z m 164.78907,-0.58326 C 461.19887,304.06572 461.09926,269.3 461.24146,227.5 l 0.25854,-76 66.75,-0.25709 66.75,-0.25709 V 173.49291 196 H 551.5 508 v 31.5 31.5 h 43.51843 43.51843 l -0.26843,23.25 -0.26843,23.25 -66.27864,0.25715 c -52.49224,0.20366 -66.37847,-0.004 -66.75854,-1 z m 466.21088,0.58322 C 927.30316,304.96983 927,294.61667 927,282.33333 V 260 h 22 22 v -51 -51 h 23.5 23.5 v 51 51 h 22.0188 22.0187 l -0.2687,22.75 -0.2688,22.75 -66.5763,0.25703 c -36.61697,0.14137 -66.87947,-0.0461 -67.25,-0.41666 z M 67,231.08682 V 157 H 90.5 114 v 51.12741 51.12742 l 22.75,-0.54753 c 25.32215,-0.60943 33.58102,-1.90416 44.25,-6.93697 C 202.27413,241.73481 215.7793,211.48638 213.49015,179 211.29556,147.85565 198.75679,125.67603 177.60731,115.52746 161.04586,107.58044 148.42747,106 101.53941,106 H 67 V 83.5 61 h 39.75613 c 28.56781,0 43.2722,0.412343 52.25,1.465205 30.86722,3.619919 51.82194,12.906102 67.89458,30.087803 17.10745,18.287922 28.03309,40.681812 32.66241,66.946992 2.30901,13.1005 2.35464,39.32315 0.0907,52.13569 -5.89687,33.37309 -23.03718,61.13989 -47.76932,77.38494 -11.03926,7.25102 -19.34973,10.53716 -33.23228,13.14077 -10.11319,1.89669 -15.83402,2.13445 -61.40224,2.5519 L 67,305.17365 Z M 627,283 v -22 h 57 57 v 22 22 h -57 -57 z m 150,0 v -22 h 57 57 v 22 22 h -57 -57 z m 316,-52.41278 v -74.41278 l 40.25,-0.34739 c 39.4543,-0.34053 40.3486,-0.39264 45.2375,-2.63607 9.7832,-4.48928 13.4547,-10.35137 13.4905,-21.53985 0.026,-8.14381 -1.6497,-12.21833 -7.0212,-17.0712 -7.1253,-6.43729 -9.8989,-6.81947 -53.2068,-7.33169 L 1093,106.78993 V 83.809353 60.828775 l 41.25,0.440116 c 37.5687,0.400838 42.1424,0.633459 51.25,2.606574 18.8592,4.085776 31.9322,12.511357 41.4184,26.694413 13.0884,19.568892 15.2527,51.195572 4.9906,72.930122 -7.4386,15.75479 -22.4823,28.06973 -41.909,34.30727 C 1182.3758,200.25526 1166.0742,202 1150.8263,202 H 1140 V 253.5 305 H 1116.5 1093 Z M 627,136 V 62 h 23.5 23.5 v 74 74 H 650.5 627 Z m 150,0 V 62 h 23.5 23.5 v 74 74 H 800.5 777 Z M 296,85 V 61.985825 L 362.75,62.242912 429.5,62.5 V 85 107.5 l -66.75,0.25709 -66.75,0.25709 z m 165.44807,21.72527 c -0.26904,-0.7011 -0.36741,-10.938596 -0.21861,-22.749997 L 461.5,62.5 528.25,62.242912 595,61.985825 V 84.992912 108 h -66.53138 c -52.99091,0 -66.63094,-0.25943 -67.02055,-1.27473 z M 927.23123,85.25 927.5,62.5 h 67 67 l 0.2688,22.75 0.2687,22.75 H 994.5 926.96245 Z"
     id="path3725"
     inkscape:connector-curvature="0" />
</svg>
